<?xml version="1.0" standalone="no"?>
<!DOCTYPE svg PUBLIC "-//W3C//DTD SVG 20010904//EN"
 "http://www.w3.org/TR/2001/REC-SVG-20010904/DTD/svg10.dtd">
<svg version="1.0" xmlns="http://www.w3.org/2000/svg"
 width="512.000000pt" height="512.000000pt" viewBox="0 0 512.000000 512.000000"
 preserveAspectRatio="xMidYMid meet">
<metadata>
Created by potrace 1.11, written by Peter Selinger 2001-2013
</metadata>
<g transform="translate(0.000000,512.000000) scale(0.100000,-0.100000)"
fill="#000000" stroke="none">
<path d="M872 4736 c-68 -22 -108 -71 -118 -145 -10 -68 45 -147 116 -169 23
-8 173 -11 430 -11 217 0 413 0 434 -1 l40 0 -65 -45 c-81 -57 -105 -74 -132
-97 -77 -64 -140 -123 -208 -192 l-77 -79 -573 -2 c-316 -1 -584 -2 -596 -3
-32 -3 -100 -67 -113 -107 -24 -73 14 -166 83 -202 29 -15 82 -17 495 -17 254
0 461 -3 459 -6 -163 -304 -256 -593 -284 -885 -16 -157 -7 -417 18 -560 5
-33 12 -69 14 -80 42 -244 181 -578 328 -789 l28 -41 -258 -5 c-285 -6 -299
-8 -345 -72 -18 -26 -23 -46 -23 -95 0 -69 17 -101 75 -140 36 -25 2 -24 630
-25 l215 0 55 -50 c50 -46 158 -129 242 -185 l33 -23 -90 0 c-50 -1 -414 -1
-810 -1 -780 -1 -760 0 -812 -55 -72 -78 -52 -203 41 -255 l41 -23 1440 0
c1286 0 1567 3 1655 18 14 3 54 10 90 16 334 58 699 226 975 449 148 119 326
311 436 471 327 477 452 1085 338 1655 -65 327 -199 624 -402 894 -91 120
-284 315 -405 409 -309 239 -677 390 -1077 443 -109 14 -2279 19 -2323 5z"/>
</g>
</svg>
