<svg xmlns="http://www.w3.org/2000/svg" width="48" height="42" viewBox="0 0 48 42">
  <g fill="none">
    <rect width="48" height="12" y="30" fill="#3BAFDA"/>
    <path fill="#1F1F1F" d="M42.8379902,9.75321174 L33.3311873,0.246408869 C33.0026422,-0.0821362896 32.4715922,-0.0821362896 32.143047,0.246408869 L5.99975927,26.3896966 C5.67121411,26.7182418 5.67121411,27.2492918 5.99975927,27.5778369 L7.7819697,29.3600474 L1.24635783,35.894819 C1.00604091,36.1351359 0.93377778,36.4964515 1.06401947,36.8107121 C1.19426115,37.1249727 1.50095932,37.3299983 1.84042797,37.3299983 L11.3472308,37.3299983 C11.5699021,37.3299983 11.7841707,37.2417701 11.941301,37.0837995 L13.7235114,35.3015891 L15.5057219,37.0837995 C15.6695743,37.247652 15.8846832,37.3299983 16.099792,37.3299983 C16.3149009,37.3299983 16.5300097,37.247652 16.6938622,37.0837995 L42.8379902,10.941352 C42.9959608,10.7833815 43.084189,10.5699532 43.084189,10.3472819 C43.084189,10.1246106 42.9959608,9.91034204 42.8379902,9.75321174 Z M10.9993595,35.6494604 L3.86883721,35.6494604 L8.97011,30.5490279 L12.5353711,34.1134488 L10.9993595,35.6494604 Z M16.099792,35.3015891 L7.78280997,26.9846071 L27.984556,6.78286101 L36.3023783,15.1015236 L16.099792,35.3015891 Z M37.4905186,13.912543 L29.1726963,5.59388045 L32.7371172,2.02861931 L41.0557798,10.3464416 L37.4905186,13.912543 Z"/>
  </g>
</svg>
