<svg xmlns="http://www.w3.org/2000/svg" width="33" height="42" viewBox="0 0 33 42">
  <g fill="none" fill-rule="evenodd">
    <rect width="26" height="30" x="6" y="12" fill="#B8E986" fill-rule="nonzero"/>
    <polygon fill="#000" points="0 3.707 0 39.594 28.322 39.594 28.356 13.678 26.357 13.675 26.324 37.595 2 37.595 2 5.707 19.836 5.707 19.836 3.707"/>
    <polygon fill="#000" points="6.647 31.122 21.709 31.122 21.709 29.122 6.647 29.122"/>
    <polygon fill="#000" points="6.647 19.826 21.709 19.826 21.709 17.826 6.647 17.826"/>
    <polygon fill="#000" points="6.647 25.474 21.709 25.474 21.709 23.474 6.647 23.474"/>
    <polygon fill="#000" points="6.647 13.715 21.709 13.715 21.709 11.715 6.647 11.715"/>
    <polygon fill="#000" points="26.39 0 26.39 3.707 22.684 3.707 22.684 5.707 26.39 5.707 26.39 9.413 28.39 9.413 28.39 5.707 32.097 5.707 32.097 3.707 28.39 3.707 28.39 0"/>
  </g>
</svg>
